<svg width="379" height="362" viewBox="0 0 379 362" fill="none" xmlns="http://www.w3.org/2000/svg">
<ellipse cx="189.5" cy="181" rx="189.5" ry="181" fill="#FFA500"/>
<g filter="url(#filter0_d_525_2701)">
<mask id="path-2-outside-1_525_2701" maskUnits="userSpaceOnUse" x="66" y="173" width="247" height="29" fill="black">
<rect fill="white" x="66" y="173" width="247" height="29"/>
<path d="M88.1977 183H85.2034C85.0263 182.139 84.7164 181.382 84.2737 180.73C83.839 180.078 83.3078 179.531 82.68 179.088C82.0602 178.637 81.372 178.299 80.6153 178.074C79.8587 177.848 79.0699 177.736 78.2488 177.736C76.7517 177.736 75.3954 178.114 74.18 178.871C72.9726 179.627 72.0107 180.742 71.2943 182.215C70.586 183.688 70.2318 185.495 70.2318 187.636C70.2318 189.777 70.586 191.585 71.2943 193.058C72.0107 194.531 72.9726 195.645 74.18 196.402C75.3954 197.159 76.7517 197.537 78.2488 197.537C79.0699 197.537 79.8587 197.424 80.6153 197.199C81.372 196.973 82.0602 196.639 82.68 196.197C83.3078 195.746 83.839 195.195 84.2737 194.543C84.7164 193.883 85.0263 193.126 85.2034 192.273H88.1977C87.9723 193.536 87.5618 194.667 86.9662 195.665C86.3705 196.664 85.63 197.513 84.7446 198.213C83.8592 198.905 82.8651 199.433 81.7623 199.795C80.6676 200.157 79.4965 200.338 78.2488 200.338C76.1399 200.338 74.2645 199.823 72.6224 198.793C70.9804 197.762 69.6885 196.297 68.7467 194.398C67.805 192.498 67.3341 190.244 67.3341 187.636C67.3341 185.028 67.805 182.775 68.7467 180.875C69.6885 178.975 70.9804 177.51 72.6224 176.48C74.2645 175.45 76.1399 174.935 78.2488 174.935C79.4965 174.935 80.6676 175.116 81.7623 175.478C82.8651 175.84 83.8592 176.371 84.7446 177.072C85.63 177.764 86.3705 178.609 86.9662 179.607C87.5618 180.597 87.9723 181.728 88.1977 183ZM113.9 187.636C113.9 190.244 113.429 192.498 112.487 194.398C111.546 196.297 110.254 197.762 108.612 198.793C106.97 199.823 105.094 200.338 102.985 200.338C100.876 200.338 99.0008 199.823 97.3588 198.793C95.7167 197.762 94.4248 196.297 93.483 194.398C92.5413 192.498 92.0704 190.244 92.0704 187.636C92.0704 185.028 92.5413 182.775 93.483 180.875C94.4248 178.975 95.7167 177.51 97.3588 176.48C99.0008 175.45 100.876 174.935 102.985 174.935C105.094 174.935 106.97 175.45 108.612 176.48C110.254 177.51 111.546 178.975 112.487 180.875C113.429 182.775 113.9 185.028 113.9 187.636ZM111.002 187.636C111.002 185.495 110.644 183.688 109.928 182.215C109.219 180.742 108.257 179.627 107.042 178.871C105.835 178.114 104.482 177.736 102.985 177.736C101.488 177.736 100.132 178.114 98.9163 178.871C97.7089 179.627 96.747 180.742 96.0306 182.215C95.3223 183.688 94.9681 185.495 94.9681 187.636C94.9681 189.777 95.3223 191.585 96.0306 193.058C96.747 194.531 97.7089 195.645 98.9163 196.402C100.132 197.159 101.488 197.537 102.985 197.537C104.482 197.537 105.835 197.159 107.042 196.402C108.257 195.645 109.219 194.531 109.928 193.058C110.644 191.585 111.002 189.777 111.002 187.636ZM118.935 175.273H122.509L130.912 195.798H131.202L139.605 175.273H143.179V200H140.378V181.213H140.136L132.409 200H129.705L121.977 181.213H121.736V200H118.935V175.273ZM152.177 175.273V200H149.183V175.273H152.177ZM177.789 175.273V200H174.891L161.417 180.585H161.175V200H158.181V175.273H161.079L174.601 194.736H174.843V175.273H177.789ZM200.684 183C200.418 182.187 200.068 181.459 199.633 180.815C199.207 180.163 198.696 179.607 198.1 179.148C197.512 178.69 196.844 178.339 196.096 178.098C195.347 177.857 194.526 177.736 193.633 177.736C192.168 177.736 190.836 178.114 189.636 178.871C188.437 179.627 187.483 180.742 186.775 182.215C186.066 183.688 185.712 185.495 185.712 187.636C185.712 189.777 186.07 191.585 186.787 193.058C187.503 194.531 188.473 195.645 189.697 196.402C190.92 197.159 192.297 197.537 193.826 197.537C195.243 197.537 196.49 197.235 197.569 196.631C198.655 196.02 199.501 195.158 200.104 194.048C200.716 192.929 201.022 191.613 201.022 190.099L201.94 190.293H194.502V187.636H203.92V190.293C203.92 192.329 203.485 194.1 202.616 195.605C201.754 197.11 200.563 198.277 199.042 199.107C197.529 199.928 195.79 200.338 193.826 200.338C191.637 200.338 189.713 199.823 188.055 198.793C186.405 197.762 185.117 196.297 184.191 194.398C183.273 192.498 182.815 190.244 182.815 187.636C182.815 185.68 183.076 183.922 183.599 182.36C184.131 180.79 184.879 179.454 185.845 178.352C186.811 177.249 187.954 176.404 189.274 175.816C190.594 175.228 192.047 174.935 193.633 174.935C194.937 174.935 196.152 175.132 197.279 175.526C198.414 175.913 199.424 176.464 200.31 177.18C201.203 177.889 201.948 178.738 202.543 179.728C203.139 180.71 203.549 181.801 203.775 183H200.684ZM232.133 181.455C231.988 180.231 231.401 179.281 230.37 178.605C229.34 177.929 228.076 177.591 226.579 177.591C225.485 177.591 224.527 177.768 223.706 178.122C222.893 178.476 222.257 178.963 221.798 179.583C221.347 180.203 221.122 180.907 221.122 181.696C221.122 182.356 221.279 182.924 221.593 183.398C221.915 183.865 222.325 184.256 222.824 184.57C223.323 184.875 223.847 185.129 224.394 185.33C224.941 185.523 225.444 185.68 225.903 185.801L228.415 186.477C229.058 186.646 229.775 186.88 230.564 187.178C231.361 187.475 232.121 187.882 232.846 188.397C233.578 188.904 234.182 189.556 234.657 190.353C235.132 191.15 235.369 192.128 235.369 193.287C235.369 194.623 235.019 195.83 234.319 196.909C233.626 197.988 232.612 198.845 231.276 199.481C229.948 200.117 228.334 200.435 226.434 200.435C224.664 200.435 223.13 200.149 221.834 199.577C220.546 199.006 219.532 198.209 218.792 197.187C218.059 196.165 217.645 194.977 217.548 193.625H220.639C220.719 194.559 221.033 195.331 221.581 195.943C222.136 196.547 222.836 196.998 223.682 197.295C224.535 197.585 225.452 197.73 226.434 197.73C227.577 197.73 228.604 197.545 229.513 197.175C230.423 196.796 231.143 196.273 231.674 195.605C232.206 194.929 232.471 194.14 232.471 193.239C232.471 192.418 232.242 191.75 231.783 191.234C231.324 190.719 230.721 190.301 229.972 189.979C229.223 189.657 228.415 189.375 227.545 189.134L224.503 188.264C222.571 187.709 221.041 186.916 219.915 185.886C218.788 184.855 218.224 183.507 218.224 181.841C218.224 180.456 218.598 179.249 219.347 178.219C220.104 177.18 221.118 176.375 222.39 175.804C223.669 175.224 225.098 174.935 226.676 174.935C228.27 174.935 229.686 175.22 230.926 175.792C232.165 176.355 233.147 177.128 233.872 178.11C234.604 179.092 234.991 180.207 235.031 181.455H232.133ZM261.156 187.636C261.156 190.244 260.685 192.498 259.743 194.398C258.801 196.297 257.51 197.762 255.867 198.793C254.225 199.823 252.35 200.338 250.241 200.338C248.132 200.338 246.257 199.823 244.615 198.793C242.973 197.762 241.681 196.297 240.739 194.398C239.797 192.498 239.326 190.244 239.326 187.636C239.326 185.028 239.797 182.775 240.739 180.875C241.681 178.975 242.973 177.51 244.615 176.48C246.257 175.45 248.132 174.935 250.241 174.935C252.35 174.935 254.225 175.45 255.867 176.48C257.51 177.51 258.801 178.975 259.743 180.875C260.685 182.775 261.156 185.028 261.156 187.636ZM258.258 187.636C258.258 185.495 257.9 183.688 257.184 182.215C256.475 180.742 255.513 179.627 254.298 178.871C253.09 178.114 251.738 177.736 250.241 177.736C248.744 177.736 247.388 178.114 246.172 178.871C244.965 179.627 244.003 180.742 243.286 182.215C242.578 183.688 242.224 185.495 242.224 187.636C242.224 189.777 242.578 191.585 243.286 193.058C244.003 194.531 244.965 195.645 246.172 196.402C247.388 197.159 248.744 197.537 250.241 197.537C251.738 197.537 253.09 197.159 254.298 196.402C255.513 195.645 256.475 194.531 257.184 193.058C257.9 191.585 258.258 189.777 258.258 187.636ZM287.054 187.636C287.054 190.244 286.583 192.498 285.642 194.398C284.7 196.297 283.408 197.762 281.766 198.793C280.124 199.823 278.248 200.338 276.139 200.338C274.031 200.338 272.155 199.823 270.513 198.793C268.871 197.762 267.579 196.297 266.637 194.398C265.696 192.498 265.225 190.244 265.225 187.636C265.225 185.028 265.696 182.775 266.637 180.875C267.579 178.975 268.871 177.51 270.513 176.48C272.155 175.45 274.031 174.935 276.139 174.935C278.248 174.935 280.124 175.45 281.766 176.48C283.408 177.51 284.7 178.975 285.642 180.875C286.583 182.775 287.054 185.028 287.054 187.636ZM284.157 187.636C284.157 185.495 283.798 183.688 283.082 182.215C282.374 180.742 281.412 179.627 280.196 178.871C278.989 178.114 277.637 177.736 276.139 177.736C274.642 177.736 273.286 178.114 272.071 178.871C270.863 179.627 269.901 180.742 269.185 182.215C268.477 183.688 268.122 185.495 268.122 187.636C268.122 189.777 268.477 191.585 269.185 193.058C269.901 194.531 270.863 195.645 272.071 196.402C273.286 197.159 274.642 197.537 276.139 197.537C277.637 197.537 278.989 197.159 280.196 196.402C281.412 195.645 282.374 194.531 283.082 193.058C283.798 191.585 284.157 189.777 284.157 187.636ZM311.697 175.273V200H308.799L295.325 180.585H295.083V200H292.089V175.273H294.987L308.51 194.736H308.751V175.273H311.697Z"/>
</mask>
<path d="M88.1977 183H85.2034C85.0263 182.139 84.7164 181.382 84.2737 180.73C83.839 180.078 83.3078 179.531 82.68 179.088C82.0602 178.637 81.372 178.299 80.6153 178.074C79.8587 177.848 79.0699 177.736 78.2488 177.736C76.7517 177.736 75.3954 178.114 74.18 178.871C72.9726 179.627 72.0107 180.742 71.2943 182.215C70.586 183.688 70.2318 185.495 70.2318 187.636C70.2318 189.777 70.586 191.585 71.2943 193.058C72.0107 194.531 72.9726 195.645 74.18 196.402C75.3954 197.159 76.7517 197.537 78.2488 197.537C79.0699 197.537 79.8587 197.424 80.6153 197.199C81.372 196.973 82.0602 196.639 82.68 196.197C83.3078 195.746 83.839 195.195 84.2737 194.543C84.7164 193.883 85.0263 193.126 85.2034 192.273H88.1977C87.9723 193.536 87.5618 194.667 86.9662 195.665C86.3705 196.664 85.63 197.513 84.7446 198.213C83.8592 198.905 82.8651 199.433 81.7623 199.795C80.6676 200.157 79.4965 200.338 78.2488 200.338C76.1399 200.338 74.2645 199.823 72.6224 198.793C70.9804 197.762 69.6885 196.297 68.7467 194.398C67.805 192.498 67.3341 190.244 67.3341 187.636C67.3341 185.028 67.805 182.775 68.7467 180.875C69.6885 178.975 70.9804 177.51 72.6224 176.48C74.2645 175.45 76.1399 174.935 78.2488 174.935C79.4965 174.935 80.6676 175.116 81.7623 175.478C82.8651 175.84 83.8592 176.371 84.7446 177.072C85.63 177.764 86.3705 178.609 86.9662 179.607C87.5618 180.597 87.9723 181.728 88.1977 183ZM113.9 187.636C113.9 190.244 113.429 192.498 112.487 194.398C111.546 196.297 110.254 197.762 108.612 198.793C106.97 199.823 105.094 200.338 102.985 200.338C100.876 200.338 99.0008 199.823 97.3588 198.793C95.7167 197.762 94.4248 196.297 93.483 194.398C92.5413 192.498 92.0704 190.244 92.0704 187.636C92.0704 185.028 92.5413 182.775 93.483 180.875C94.4248 178.975 95.7167 177.51 97.3588 176.48C99.0008 175.45 100.876 174.935 102.985 174.935C105.094 174.935 106.97 175.45 108.612 176.48C110.254 177.51 111.546 178.975 112.487 180.875C113.429 182.775 113.9 185.028 113.9 187.636ZM111.002 187.636C111.002 185.495 110.644 183.688 109.928 182.215C109.219 180.742 108.257 179.627 107.042 178.871C105.835 178.114 104.482 177.736 102.985 177.736C101.488 177.736 100.132 178.114 98.9163 178.871C97.7089 179.627 96.747 180.742 96.0306 182.215C95.3223 183.688 94.9681 185.495 94.9681 187.636C94.9681 189.777 95.3223 191.585 96.0306 193.058C96.747 194.531 97.7089 195.645 98.9163 196.402C100.132 197.159 101.488 197.537 102.985 197.537C104.482 197.537 105.835 197.159 107.042 196.402C108.257 195.645 109.219 194.531 109.928 193.058C110.644 191.585 111.002 189.777 111.002 187.636ZM118.935 175.273H122.509L130.912 195.798H131.202L139.605 175.273H143.179V200H140.378V181.213H140.136L132.409 200H129.705L121.977 181.213H121.736V200H118.935V175.273ZM152.177 175.273V200H149.183V175.273H152.177ZM177.789 175.273V200H174.891L161.417 180.585H161.175V200H158.181V175.273H161.079L174.601 194.736H174.843V175.273H177.789ZM200.684 183C200.418 182.187 200.068 181.459 199.633 180.815C199.207 180.163 198.696 179.607 198.1 179.148C197.512 178.69 196.844 178.339 196.096 178.098C195.347 177.857 194.526 177.736 193.633 177.736C192.168 177.736 190.836 178.114 189.636 178.871C188.437 179.627 187.483 180.742 186.775 182.215C186.066 183.688 185.712 185.495 185.712 187.636C185.712 189.777 186.07 191.585 186.787 193.058C187.503 194.531 188.473 195.645 189.697 196.402C190.92 197.159 192.297 197.537 193.826 197.537C195.243 197.537 196.49 197.235 197.569 196.631C198.655 196.02 199.501 195.158 200.104 194.048C200.716 192.929 201.022 191.613 201.022 190.099L201.94 190.293H194.502V187.636H203.92V190.293C203.92 192.329 203.485 194.1 202.616 195.605C201.754 197.11 200.563 198.277 199.042 199.107C197.529 199.928 195.79 200.338 193.826 200.338C191.637 200.338 189.713 199.823 188.055 198.793C186.405 197.762 185.117 196.297 184.191 194.398C183.273 192.498 182.815 190.244 182.815 187.636C182.815 185.68 183.076 183.922 183.599 182.36C184.131 180.79 184.879 179.454 185.845 178.352C186.811 177.249 187.954 176.404 189.274 175.816C190.594 175.228 192.047 174.935 193.633 174.935C194.937 174.935 196.152 175.132 197.279 175.526C198.414 175.913 199.424 176.464 200.31 177.18C201.203 177.889 201.948 178.738 202.543 179.728C203.139 180.71 203.549 181.801 203.775 183H200.684ZM232.133 181.455C231.988 180.231 231.401 179.281 230.37 178.605C229.34 177.929 228.076 177.591 226.579 177.591C225.485 177.591 224.527 177.768 223.706 178.122C222.893 178.476 222.257 178.963 221.798 179.583C221.347 180.203 221.122 180.907 221.122 181.696C221.122 182.356 221.279 182.924 221.593 183.398C221.915 183.865 222.325 184.256 222.824 184.57C223.323 184.875 223.847 185.129 224.394 185.33C224.941 185.523 225.444 185.68 225.903 185.801L228.415 186.477C229.058 186.646 229.775 186.88 230.564 187.178C231.361 187.475 232.121 187.882 232.846 188.397C233.578 188.904 234.182 189.556 234.657 190.353C235.132 191.15 235.369 192.128 235.369 193.287C235.369 194.623 235.019 195.83 234.319 196.909C233.626 197.988 232.612 198.845 231.276 199.481C229.948 200.117 228.334 200.435 226.434 200.435C224.664 200.435 223.13 200.149 221.834 199.577C220.546 199.006 219.532 198.209 218.792 197.187C218.059 196.165 217.645 194.977 217.548 193.625H220.639C220.719 194.559 221.033 195.331 221.581 195.943C222.136 196.547 222.836 196.998 223.682 197.295C224.535 197.585 225.452 197.73 226.434 197.73C227.577 197.73 228.604 197.545 229.513 197.175C230.423 196.796 231.143 196.273 231.674 195.605C232.206 194.929 232.471 194.14 232.471 193.239C232.471 192.418 232.242 191.75 231.783 191.234C231.324 190.719 230.721 190.301 229.972 189.979C229.223 189.657 228.415 189.375 227.545 189.134L224.503 188.264C222.571 187.709 221.041 186.916 219.915 185.886C218.788 184.855 218.224 183.507 218.224 181.841C218.224 180.456 218.598 179.249 219.347 178.219C220.104 177.18 221.118 176.375 222.39 175.804C223.669 175.224 225.098 174.935 226.676 174.935C228.27 174.935 229.686 175.22 230.926 175.792C232.165 176.355 233.147 177.128 233.872 178.11C234.604 179.092 234.991 180.207 235.031 181.455H232.133ZM261.156 187.636C261.156 190.244 260.685 192.498 259.743 194.398C258.801 196.297 257.51 197.762 255.867 198.793C254.225 199.823 252.35 200.338 250.241 200.338C248.132 200.338 246.257 199.823 244.615 198.793C242.973 197.762 241.681 196.297 240.739 194.398C239.797 192.498 239.326 190.244 239.326 187.636C239.326 185.028 239.797 182.775 240.739 180.875C241.681 178.975 242.973 177.51 244.615 176.48C246.257 175.45 248.132 174.935 250.241 174.935C252.35 174.935 254.225 175.45 255.867 176.48C257.51 177.51 258.801 178.975 259.743 180.875C260.685 182.775 261.156 185.028 261.156 187.636ZM258.258 187.636C258.258 185.495 257.9 183.688 257.184 182.215C256.475 180.742 255.513 179.627 254.298 178.871C253.09 178.114 251.738 177.736 250.241 177.736C248.744 177.736 247.388 178.114 246.172 178.871C244.965 179.627 244.003 180.742 243.286 182.215C242.578 183.688 242.224 185.495 242.224 187.636C242.224 189.777 242.578 191.585 243.286 193.058C244.003 194.531 244.965 195.645 246.172 196.402C247.388 197.159 248.744 197.537 250.241 197.537C251.738 197.537 253.09 197.159 254.298 196.402C255.513 195.645 256.475 194.531 257.184 193.058C257.9 191.585 258.258 189.777 258.258 187.636ZM287.054 187.636C287.054 190.244 286.583 192.498 285.642 194.398C284.7 196.297 283.408 197.762 281.766 198.793C280.124 199.823 278.248 200.338 276.139 200.338C274.031 200.338 272.155 199.823 270.513 198.793C268.871 197.762 267.579 196.297 266.637 194.398C265.696 192.498 265.225 190.244 265.225 187.636C265.225 185.028 265.696 182.775 266.637 180.875C267.579 178.975 268.871 177.51 270.513 176.48C272.155 175.45 274.031 174.935 276.139 174.935C278.248 174.935 280.124 175.45 281.766 176.48C283.408 177.51 284.7 178.975 285.642 180.875C286.583 182.775 287.054 185.028 287.054 187.636ZM284.157 187.636C284.157 185.495 283.798 183.688 283.082 182.215C282.374 180.742 281.412 179.627 280.196 178.871C278.989 178.114 277.637 177.736 276.139 177.736C274.642 177.736 273.286 178.114 272.071 178.871C270.863 179.627 269.901 180.742 269.185 182.215C268.477 183.688 268.122 185.495 268.122 187.636C268.122 189.777 268.477 191.585 269.185 193.058C269.901 194.531 270.863 195.645 272.071 196.402C273.286 197.159 274.642 197.537 276.139 197.537C277.637 197.537 278.989 197.159 280.196 196.402C281.412 195.645 282.374 194.531 283.082 193.058C283.798 191.585 284.157 189.777 284.157 187.636ZM311.697 175.273V200H308.799L295.325 180.585H295.083V200H292.089V175.273H294.987L308.51 194.736H308.751V175.273H311.697Z" fill="black"/>
<path d="M88.1977 183V184H89.3905L89.1824 182.826L88.1977 183ZM85.2034 183L84.2239 183.201L84.3881 184H85.2034V183ZM84.2737 180.73L83.4416 181.285L83.4464 181.292L84.2737 180.73ZM82.68 179.088L82.0918 179.897L82.0977 179.901L82.1037 179.905L82.68 179.088ZM80.6153 178.074L80.3298 179.032L80.3298 179.032L80.6153 178.074ZM74.18 178.871L73.6515 178.022L73.6489 178.023L74.18 178.871ZM71.2943 182.215L70.395 181.778L70.3931 181.782L71.2943 182.215ZM71.2943 193.058L70.3931 193.491L70.395 193.495L71.2943 193.058ZM74.18 196.402L73.6489 197.249L73.6515 197.251L74.18 196.402ZM80.6153 197.199L80.3298 196.24L80.3298 196.24L80.6153 197.199ZM82.68 196.197L83.2612 197.01L83.2632 197.009L82.68 196.197ZM84.2737 194.543L83.4432 193.986L83.4417 193.988L84.2737 194.543ZM85.2034 192.273V191.273H84.3896L84.2243 192.07L85.2034 192.273ZM88.1977 192.273L89.1822 192.448L89.3918 191.273H88.1977V192.273ZM86.9662 195.665L86.1075 195.153L86.1075 195.153L86.9662 195.665ZM84.7446 198.213L85.3605 199.001L85.3649 198.997L84.7446 198.213ZM81.7623 199.795L81.4503 198.845L81.4482 198.845L81.7623 199.795ZM72.6224 198.793L72.0909 199.64L72.0909 199.64L72.6224 198.793ZM68.7467 194.398L69.6427 193.954L69.6427 193.954L68.7467 194.398ZM68.7467 180.875L67.8508 180.431L68.7467 180.875ZM81.7623 175.478L81.4482 176.427L81.4503 176.428L81.7623 175.478ZM84.7446 177.072L84.1242 177.856L84.1287 177.86L84.7446 177.072ZM86.9662 179.607L86.1075 180.12L86.1093 180.123L86.9662 179.607ZM88.1977 182H85.2034V184H88.1977V182ZM86.1829 182.799C85.9824 181.823 85.6258 180.941 85.101 180.168L83.4464 181.292C83.807 181.823 84.0702 182.454 84.2239 183.201L86.1829 182.799ZM85.1058 180.175C84.6041 179.423 83.9868 178.786 83.2562 178.271L82.1037 179.905C82.6288 180.276 83.074 180.733 83.4417 181.285L85.1058 180.175ZM83.2681 178.279C82.5539 177.76 81.7628 177.372 80.9008 177.115L80.3298 179.032C80.9811 179.226 81.5664 179.515 82.0918 179.897L83.2681 178.279ZM80.9008 177.115C80.0479 176.861 79.1627 176.736 78.2488 176.736V178.736C78.9771 178.736 79.6695 178.836 80.3298 179.032L80.9008 177.115ZM78.2488 176.736C76.5738 176.736 75.0329 177.162 73.6515 178.022L74.7084 179.72C75.7578 179.066 76.9295 178.736 78.2488 178.736V176.736ZM73.6489 178.023C72.2602 178.894 71.1808 180.162 70.395 181.778L72.1936 182.653C72.8406 181.322 73.6849 180.361 74.711 179.718L73.6489 178.023ZM70.3931 181.782C69.6028 183.425 69.2318 185.39 69.2318 187.636H71.2318C71.2318 185.601 71.5691 183.951 72.1955 182.649L70.3931 181.782ZM69.2318 187.636C69.2318 189.883 69.6028 191.848 70.3931 193.491L72.1955 192.624C71.5691 191.322 71.2318 189.672 71.2318 187.636H69.2318ZM70.395 193.495C71.1808 195.111 72.2602 196.379 73.6489 197.249L74.711 195.555C73.6849 194.912 72.8406 193.95 72.1936 192.62L70.395 193.495ZM73.6515 197.251C75.0329 198.111 76.5738 198.537 78.2488 198.537V196.537C76.9295 196.537 75.7578 196.206 74.7084 195.553L73.6515 197.251ZM78.2488 198.537C79.1627 198.537 80.0479 198.411 80.9008 198.157L80.3298 196.24C79.6695 196.437 78.9771 196.537 78.2488 196.537V198.537ZM80.9008 198.157C81.7594 197.901 82.5482 197.52 83.2612 197.01L82.0987 195.383C81.5721 195.759 80.9845 196.045 80.3298 196.24L80.9008 198.157ZM83.2632 197.009C83.9902 196.487 84.6053 195.848 85.1058 195.097L83.4417 193.988C83.0728 194.541 82.6254 195.005 82.0967 195.384L83.2632 197.009ZM85.1042 195.1C85.6255 194.322 85.9817 193.443 86.1825 192.476L84.2243 192.07C84.0709 192.809 83.8073 193.443 83.4432 193.986L85.1042 195.1ZM85.2034 193.273H88.1977V191.273H85.2034V193.273ZM87.2132 192.097C87.0069 193.254 86.635 194.269 86.1075 195.153L87.8249 196.178C88.4886 195.066 88.9378 193.819 89.1822 192.448L87.2132 192.097ZM86.1075 195.153C85.5722 196.05 84.9115 196.806 84.1242 197.429L85.3649 198.997C86.3485 198.219 87.1688 197.277 87.8249 196.178L86.1075 195.153ZM84.1287 197.425C83.3374 198.044 82.4468 198.517 81.4503 198.845L82.0744 200.745C83.2834 200.348 84.381 199.767 85.3605 199.001L84.1287 197.425ZM81.4482 198.845C80.4628 199.171 79.3985 199.338 78.2488 199.338V201.338C79.5945 201.338 80.8725 201.143 82.0765 200.744L81.4482 198.845ZM78.2488 199.338C76.3108 199.338 74.6228 198.867 73.1539 197.946L72.0909 199.64C73.9062 200.779 75.9691 201.338 78.2488 201.338V199.338ZM73.1539 197.946C71.6827 197.022 70.5104 195.704 69.6427 193.954L67.8508 194.842C68.8666 196.891 70.2781 198.502 72.0909 199.64L73.1539 197.946ZM69.6427 193.954C68.7833 192.22 68.3341 190.125 68.3341 187.636H66.3341C66.3341 190.364 66.8266 192.776 67.8508 194.842L69.6427 193.954ZM68.3341 187.636C68.3341 185.148 68.7833 183.053 69.6427 181.319L67.8508 180.431C66.8266 182.497 66.3341 184.909 66.3341 187.636H68.3341ZM69.6427 181.319C70.5104 179.569 71.6827 178.25 73.1539 177.327L72.0909 175.633C70.2781 176.771 68.8666 178.382 67.8508 180.431L69.6427 181.319ZM73.1539 177.327C74.6228 176.406 76.3108 175.935 78.2488 175.935V173.935C75.9691 173.935 73.9062 174.494 72.0909 175.633L73.1539 177.327ZM78.2488 175.935C79.3985 175.935 80.4628 176.101 81.4482 176.427L82.0765 174.529C80.8725 174.13 79.5945 173.935 78.2488 173.935V175.935ZM81.4503 176.428C82.4445 176.755 83.3337 177.231 84.1242 177.856L85.3649 176.287C84.3847 175.512 83.2857 174.926 82.0744 174.528L81.4503 176.428ZM84.1287 177.86C84.9135 178.473 85.5729 179.224 86.1075 180.12L87.8249 179.095C87.1682 177.994 86.3465 177.055 85.3605 176.284L84.1287 177.86ZM86.1093 180.123C86.6348 180.996 87.0065 182.009 87.2131 183.174L89.1824 182.826C88.9381 181.447 88.4888 180.198 87.8231 179.092L86.1093 180.123ZM112.487 194.398L111.591 193.954L111.591 193.954L112.487 194.398ZM108.612 198.793L109.143 199.64L109.143 199.64L108.612 198.793ZM97.3588 198.793L96.8273 199.64L96.8273 199.64L97.3588 198.793ZM93.483 194.398L94.379 193.954L94.379 193.954L93.483 194.398ZM93.483 180.875L92.5871 180.431L93.483 180.875ZM108.612 176.48L109.143 175.633L109.143 175.633L108.612 176.48ZM112.487 180.875L111.591 181.319L111.591 181.319L112.487 180.875ZM109.928 182.215L109.026 182.649L109.028 182.653L109.928 182.215ZM107.042 178.871L106.511 179.718L106.514 179.72L107.042 178.871ZM98.9163 178.871L98.3878 178.022L98.3853 178.023L98.9163 178.871ZM96.0306 182.215L95.1313 181.778L95.1294 181.782L96.0306 182.215ZM96.0306 193.058L95.1294 193.491L95.1313 193.495L96.0306 193.058ZM98.9163 196.402L98.3853 197.249L98.3878 197.251L98.9163 196.402ZM107.042 196.402L106.514 195.553L106.511 195.555L107.042 196.402ZM109.928 193.058L109.028 192.62L109.026 192.624L109.928 193.058ZM112.9 187.636C112.9 190.125 112.451 192.22 111.591 193.954L113.383 194.842C114.407 192.776 114.9 190.364 114.9 187.636H112.9ZM111.591 193.954C110.724 195.704 109.551 197.022 108.08 197.946L109.143 199.64C110.956 198.502 112.367 196.891 113.383 194.842L111.591 193.954ZM108.08 197.946C106.611 198.867 104.923 199.338 102.985 199.338V201.338C105.265 201.338 107.328 200.779 109.143 199.64L108.08 197.946ZM102.985 199.338C101.047 199.338 99.3591 198.867 97.8902 197.946L96.8273 199.64C98.6425 200.779 100.705 201.338 102.985 201.338V199.338ZM97.8902 197.946C96.419 197.022 95.2467 195.704 94.379 193.954L92.5871 194.842C93.6029 196.891 95.0144 198.502 96.8273 199.64L97.8902 197.946ZM94.379 193.954C93.5196 192.22 93.0704 190.125 93.0704 187.636H91.0704C91.0704 190.364 91.563 192.776 92.5871 194.842L94.379 193.954ZM93.0704 187.636C93.0704 185.148 93.5196 183.053 94.379 181.319L92.5871 180.431C91.563 182.497 91.0704 184.909 91.0704 187.636H93.0704ZM94.379 181.319C95.2467 179.569 96.419 178.25 97.8902 177.327L96.8273 175.633C95.0144 176.771 93.6029 178.382 92.5871 180.431L94.379 181.319ZM97.8902 177.327C99.3591 176.406 101.047 175.935 102.985 175.935V173.935C100.705 173.935 98.6425 174.494 96.8273 175.633L97.8902 177.327ZM102.985 175.935C104.923 175.935 106.611 176.406 108.08 177.327L109.143 175.633C107.328 174.494 105.265 173.935 102.985 173.935V175.935ZM108.08 177.327C109.551 178.25 110.724 179.569 111.591 181.319L113.383 180.431C112.367 178.382 110.956 176.771 109.143 175.633L108.08 177.327ZM111.591 181.319C112.451 183.053 112.9 185.148 112.9 187.636H114.9C114.9 184.909 114.407 182.497 113.383 180.431L111.591 181.319ZM112.002 187.636C112.002 185.388 111.627 183.422 110.827 181.778L109.028 182.653C109.661 183.954 110.002 185.602 110.002 187.636H112.002ZM110.829 181.782C110.05 180.163 108.969 178.892 107.57 178.022L106.514 179.72C107.546 180.362 108.388 181.322 109.026 182.649L110.829 181.782ZM107.573 178.023C106.198 177.162 104.66 176.736 102.985 176.736V178.736C104.304 178.736 105.471 179.066 106.511 179.718L107.573 178.023ZM102.985 176.736C101.31 176.736 99.7693 177.162 98.3878 178.022L99.4448 179.72C100.494 179.066 101.666 178.736 102.985 178.736V176.736ZM98.3853 178.023C96.9965 178.894 95.9171 180.162 95.1313 181.778L96.9299 182.653C97.5769 181.322 98.4213 180.361 99.4473 179.718L98.3853 178.023ZM95.1294 181.782C94.3392 183.425 93.9681 185.39 93.9681 187.636H95.9681C95.9681 185.601 96.3054 183.951 96.9318 182.649L95.1294 181.782ZM93.9681 187.636C93.9681 189.883 94.3392 191.848 95.1294 193.491L96.9318 192.624C96.3054 191.322 95.9681 189.672 95.9681 187.636H93.9681ZM95.1313 193.495C95.9171 195.111 96.9965 196.379 98.3853 197.249L99.4473 195.555C98.4213 194.912 97.5769 193.95 96.9299 192.62L95.1313 193.495ZM98.3878 197.251C99.7693 198.111 101.31 198.537 102.985 198.537V196.537C101.666 196.537 100.494 196.206 99.4448 195.553L98.3878 197.251ZM102.985 198.537C104.66 198.537 106.198 198.111 107.573 197.249L106.511 195.555C105.471 196.206 104.304 196.537 102.985 196.537V198.537ZM107.57 197.251C108.969 196.38 110.05 195.11 110.829 193.491L109.026 192.624C108.388 193.951 107.546 194.91 106.514 195.553L107.57 197.251ZM110.827 193.495C111.627 191.85 112.002 189.884 112.002 187.636H110.002C110.002 189.671 109.661 191.319 109.028 192.62L110.827 193.495ZM118.935 175.273V174.273H117.935V175.273H118.935ZM122.509 175.273L123.434 174.894L123.18 174.273H122.509V175.273ZM130.912 195.798L129.987 196.177L130.241 196.798H130.912V195.798ZM131.202 195.798V196.798H131.873L132.127 196.177L131.202 195.798ZM139.605 175.273V174.273H138.934L138.68 174.894L139.605 175.273ZM143.179 175.273H144.179V174.273H143.179V175.273ZM143.179 200V201H144.179V200H143.179ZM140.378 200H139.378V201H140.378V200ZM140.378 181.213H141.378V180.213H140.378V181.213ZM140.136 181.213V180.213H139.466L139.212 180.833L140.136 181.213ZM132.409 200V201H133.079L133.334 200.38L132.409 200ZM129.705 200L128.78 200.38L129.035 201H129.705V200ZM121.977 181.213L122.902 180.833L122.647 180.213H121.977V181.213ZM121.736 181.213V180.213H120.736V181.213H121.736ZM121.736 200V201H122.736V200H121.736ZM118.935 200H117.935V201H118.935V200ZM118.935 176.273H122.509V174.273H118.935V176.273ZM121.583 175.652L129.987 196.177L131.837 195.419L123.434 174.894L121.583 175.652ZM130.912 196.798H131.202V194.798H130.912V196.798ZM132.127 196.177L140.531 175.652L138.68 174.894L130.276 195.419L132.127 196.177ZM139.605 176.273H143.179V174.273H139.605V176.273ZM142.179 175.273V200H144.179V175.273H142.179ZM143.179 199H140.378V201H143.179V199ZM141.378 200V181.213H139.378V200H141.378ZM140.378 180.213H140.136V182.213H140.378V180.213ZM139.212 180.833L131.484 199.62L133.334 200.38L141.061 181.593L139.212 180.833ZM132.409 199H129.705V201H132.409V199ZM130.629 199.62L122.902 180.833L121.053 181.593L128.78 200.38L130.629 199.62ZM121.977 180.213H121.736V182.213H121.977V180.213ZM120.736 181.213V200H122.736V181.213H120.736ZM121.736 199H118.935V201H121.736V199ZM119.935 200V175.273H117.935V200H119.935ZM152.177 175.273H153.177V174.273H152.177V175.273ZM152.177 200V201H153.177V200H152.177ZM149.183 200H148.183V201H149.183V200ZM149.183 175.273V174.273H148.183V175.273H149.183ZM151.177 175.273V200H153.177V175.273H151.177ZM152.177 199H149.183V201H152.177V199ZM150.183 200V175.273H148.183V200H150.183ZM149.183 176.273H152.177V174.273H149.183V176.273ZM177.789 175.273H178.789V174.273H177.789V175.273ZM177.789 200V201H178.789V200H177.789ZM174.891 200L174.07 200.57L174.368 201H174.891V200ZM161.417 180.585L162.238 180.015L161.94 179.585H161.417V180.585ZM161.175 180.585V179.585H160.175V180.585H161.175ZM161.175 200V201H162.175V200H161.175ZM158.181 200H157.181V201H158.181V200ZM158.181 175.273V174.273H157.181V175.273H158.181ZM161.079 175.273L161.9 174.702L161.601 174.273H161.079V175.273ZM174.601 194.736L173.78 195.306L174.078 195.736H174.601V194.736ZM174.843 194.736V195.736H175.843V194.736H174.843ZM174.843 175.273V174.273H173.843V175.273H174.843ZM176.789 175.273V200H178.789V175.273H176.789ZM177.789 199H174.891V201H177.789V199ZM175.713 199.43L162.238 180.015L160.595 181.155L174.07 200.57L175.713 199.43ZM161.417 179.585H161.175V181.585H161.417V179.585ZM160.175 180.585V200H162.175V180.585H160.175ZM161.175 199H158.181V201H161.175V199ZM159.181 200V175.273H157.181V200H159.181ZM158.181 176.273H161.079V174.273H158.181V176.273ZM160.257 175.843L173.78 195.306L175.423 194.165L161.9 174.702L160.257 175.843ZM174.601 195.736H174.843V193.736H174.601V195.736ZM175.843 194.736V175.273H173.843V194.736H175.843ZM174.843 176.273H177.789V174.273H174.843V176.273ZM200.684 183L199.733 183.311L199.959 184H200.684V183ZM199.633 180.815L198.797 181.362L198.801 181.368L198.805 181.374L199.633 180.815ZM198.1 179.148L197.485 179.937L197.49 179.941L198.1 179.148ZM196.096 178.098L196.403 177.146L196.403 177.146L196.096 178.098ZM186.775 182.215L187.676 182.649L187.676 182.649L186.775 182.215ZM186.787 193.058L185.888 193.495L185.888 193.495L186.787 193.058ZM189.697 196.402L189.171 197.252L189.697 196.402ZM197.569 196.631L198.057 197.504L198.059 197.503L197.569 196.631ZM200.104 194.048L199.227 193.568L199.226 193.57L200.104 194.048ZM201.022 190.099L201.228 189.121L200.022 188.867V190.099H201.022ZM201.94 190.293V191.293L202.146 189.314L201.94 190.293ZM194.502 190.293H193.502V191.293H194.502V190.293ZM194.502 187.636V186.636H193.502V187.636H194.502ZM203.92 187.636H204.92V186.636H203.92V187.636ZM202.616 195.605L201.75 195.105L201.748 195.108L202.616 195.605ZM199.042 199.107L199.519 199.986L199.52 199.985L199.042 199.107ZM188.055 198.793L187.525 199.641L187.527 199.642L188.055 198.793ZM184.191 194.398L183.291 194.833L183.292 194.836L184.191 194.398ZM183.599 182.36L182.652 182.039L182.651 182.042L183.599 182.36ZM185.845 178.352L186.597 179.01L186.597 179.01L185.845 178.352ZM189.274 175.816L188.867 174.902L189.274 175.816ZM197.279 175.526L196.949 176.47L196.957 176.473L197.279 175.526ZM200.31 177.18L199.681 177.958L199.688 177.964L200.31 177.18ZM202.543 179.728L201.686 180.244L201.688 180.247L202.543 179.728ZM203.775 183V184H204.98L204.758 182.815L203.775 183ZM201.634 182.689C201.343 181.797 200.954 180.983 200.462 180.255L198.805 181.374C199.182 181.934 199.494 182.577 199.733 183.311L201.634 182.689ZM200.47 180.267C199.985 179.525 199.398 178.886 198.71 178.356L197.49 179.941C197.994 180.329 198.429 180.8 198.797 181.362L200.47 180.267ZM198.715 178.36C198.03 177.825 197.257 177.422 196.403 177.146L195.789 179.05C196.432 179.257 196.994 179.554 197.485 179.937L198.715 178.36ZM196.403 177.146C195.543 176.869 194.616 176.736 193.633 176.736V178.736C194.436 178.736 195.152 178.844 195.789 179.05L196.403 177.146ZM193.633 176.736C191.985 176.736 190.467 177.164 189.103 178.025L190.17 179.716C191.204 179.064 192.35 178.736 193.633 178.736V176.736ZM189.103 178.025C187.721 178.896 186.651 180.166 185.874 181.782L187.676 182.649C188.316 181.318 189.152 180.358 190.17 179.716L189.103 178.025ZM185.874 181.782C185.083 183.425 184.712 185.39 184.712 187.636H186.712C186.712 185.601 187.05 183.951 187.676 182.649L185.874 181.782ZM184.712 187.636C184.712 189.884 185.088 191.85 185.888 193.495L187.686 192.62C187.053 191.319 186.712 189.671 186.712 187.636H184.712ZM185.888 193.495C186.675 195.114 187.765 196.383 189.171 197.252L190.223 195.551C189.182 194.908 188.331 193.947 187.686 192.62L185.888 193.495ZM189.171 197.252C190.562 198.113 192.123 198.537 193.826 198.537V196.537C192.47 196.537 191.278 196.204 190.223 195.551L189.171 197.252ZM193.826 198.537C195.388 198.537 196.809 198.203 198.057 197.504L197.08 195.759C196.172 196.267 195.097 196.537 193.826 196.537V198.537ZM198.059 197.503C199.312 196.797 200.291 195.799 200.983 194.525L199.226 193.57C198.71 194.518 197.999 195.242 197.078 195.76L198.059 197.503ZM200.982 194.527C201.688 193.236 202.022 191.749 202.022 190.099H200.022C200.022 191.476 199.744 192.621 199.227 193.568L200.982 194.527ZM200.816 191.078L201.734 191.271L202.146 189.314L201.228 189.121L200.816 191.078ZM201.94 189.293H194.502V191.293H201.94V189.293ZM195.502 190.293V187.636H193.502V190.293H195.502ZM194.502 188.636H203.92V186.636H194.502V188.636ZM202.92 187.636V190.293H204.92V187.636H202.92ZM202.92 190.293C202.92 192.184 202.517 193.776 201.75 195.105L203.482 196.105C204.453 194.424 204.92 192.474 204.92 190.293H202.92ZM201.748 195.108C200.978 196.453 199.922 197.488 198.563 198.228L199.52 199.985C201.204 199.067 202.53 197.768 203.484 196.102L201.748 195.108ZM198.565 198.228C197.218 198.959 195.647 199.338 193.826 199.338V201.338C195.933 201.338 197.84 200.897 199.519 199.985L198.565 198.228ZM193.826 199.338C191.8 199.338 190.063 198.863 188.582 197.943L187.527 199.642C189.362 200.782 191.473 201.338 193.826 201.338V199.338ZM188.584 197.944C187.107 197.022 185.941 195.706 185.09 193.96L183.292 194.836C184.293 196.889 185.702 198.503 187.525 199.641L188.584 197.944ZM185.091 193.963C184.253 192.227 183.815 190.128 183.815 187.636H181.815C181.815 190.36 182.294 192.769 183.291 194.833L185.091 193.963ZM183.815 187.636C183.815 185.769 184.064 184.12 184.548 182.678L182.651 182.042C182.088 183.723 181.815 185.592 181.815 187.636H183.815ZM184.547 182.681C185.041 181.219 185.729 180.002 186.597 179.01L185.093 177.693C184.03 178.906 183.22 180.362 182.652 182.039L184.547 182.681ZM186.597 179.01C187.469 178.015 188.495 177.257 189.681 176.73L188.867 174.902C187.413 175.55 186.153 176.483 185.093 177.693L186.597 179.01ZM189.681 176.73C190.861 176.204 192.173 175.935 193.633 175.935V173.935C191.921 173.935 190.327 174.253 188.867 174.902L189.681 176.73ZM193.633 175.935C194.835 175.935 195.937 176.116 196.949 176.47L197.609 174.582C196.367 174.148 195.039 173.935 193.633 173.935V175.935ZM196.957 176.473C197.986 176.823 198.891 177.319 199.681 177.958L200.939 176.403C199.957 175.609 198.842 175.002 197.601 174.58L196.957 176.473ZM199.688 177.964C200.487 178.597 201.152 179.355 201.686 180.244L203.4 179.212C202.743 178.121 201.92 177.181 200.931 176.397L199.688 177.964ZM201.688 180.247C202.218 181.12 202.587 182.096 202.792 183.185L204.758 182.815C204.511 181.505 204.06 180.3 203.398 179.209L201.688 180.247ZM203.775 182H200.684V184H203.775V182ZM232.133 181.455L231.14 181.572L231.245 182.455H232.133V181.455ZM230.37 178.605L229.822 179.441L229.822 179.441L230.37 178.605ZM223.706 178.122L223.31 177.204L223.306 177.205L223.706 178.122ZM221.798 179.583L220.994 178.988L220.989 178.995L221.798 179.583ZM221.593 183.398L220.759 183.95L220.764 183.958L220.77 183.966L221.593 183.398ZM222.824 184.57L222.292 185.416L222.302 185.422L222.824 184.57ZM224.394 185.33L224.049 186.269L224.061 186.273L224.394 185.33ZM225.903 185.801L226.163 184.836L226.158 184.834L225.903 185.801ZM228.415 186.477L228.155 187.443L228.161 187.445L228.415 186.477ZM230.564 187.178L230.21 188.113L230.214 188.114L230.564 187.178ZM232.846 188.397L232.266 189.212L232.276 189.219L232.846 188.397ZM234.657 190.353L235.516 189.841L235.516 189.841L234.657 190.353ZM234.319 196.909L233.48 196.365L233.477 196.369L234.319 196.909ZM231.276 199.481L230.846 198.578L230.844 198.579L231.276 199.481ZM221.834 199.577L221.429 200.491L221.431 200.492L221.834 199.577ZM218.792 197.187L217.979 197.769L217.982 197.773L218.792 197.187ZM217.548 193.625V192.625H216.474L216.551 193.696L217.548 193.625ZM220.639 193.625L221.635 193.539L221.556 192.625H220.639V193.625ZM221.581 195.943L220.835 196.61L220.845 196.62L221.581 195.943ZM223.682 197.295L223.349 198.239L223.36 198.242L223.682 197.295ZM229.513 197.175L229.89 198.101L229.897 198.098L229.513 197.175ZM231.674 195.605L232.457 196.228L232.461 196.223L231.674 195.605ZM231.783 191.234L232.53 190.569L232.53 190.569L231.783 191.234ZM229.972 189.979L229.577 190.897L229.577 190.897L229.972 189.979ZM227.545 189.134L227.27 190.095L227.278 190.097L227.545 189.134ZM224.503 188.264L224.226 189.225L224.228 189.226L224.503 188.264ZM219.915 185.886L219.24 186.624L219.24 186.624L219.915 185.886ZM219.347 178.219L218.539 177.63L218.538 177.631L219.347 178.219ZM222.39 175.804L222.8 176.716L222.802 176.715L222.39 175.804ZM230.926 175.792L230.507 176.7L230.512 176.702L230.926 175.792ZM233.872 178.11L233.067 178.704L233.07 178.708L233.872 178.11ZM235.031 181.455V182.455H236.064L236.03 181.422L235.031 181.455ZM233.126 181.337C232.947 179.82 232.196 178.607 230.919 177.769L229.822 179.441C230.605 179.955 231.03 180.642 231.14 181.572L233.126 181.337ZM230.919 177.769C229.694 176.965 228.229 176.591 226.579 176.591V178.591C227.924 178.591 228.987 178.893 229.822 179.441L230.919 177.769ZM226.579 176.591C225.378 176.591 224.28 176.785 223.31 177.204L224.102 179.04C224.773 178.751 225.591 178.591 226.579 178.591V176.591ZM223.306 177.205C222.357 177.619 221.572 178.208 220.994 178.988L222.602 180.178C222.942 179.719 223.428 179.334 224.105 179.039L223.306 177.205ZM220.989 178.995C220.41 179.791 220.122 180.702 220.122 181.696H222.122C222.122 181.112 222.284 180.615 222.607 180.171L220.989 178.995ZM220.122 181.696C220.122 182.52 220.32 183.287 220.759 183.95L222.427 182.847C222.238 182.561 222.122 182.192 222.122 181.696H220.122ZM220.77 183.966C221.172 184.549 221.683 185.033 222.292 185.416L223.357 183.723C222.968 183.479 222.658 183.181 222.416 182.831L220.77 183.966ZM222.302 185.422C222.857 185.762 223.439 186.045 224.049 186.269L224.739 184.392C224.254 184.213 223.79 183.989 223.347 183.717L222.302 185.422ZM224.061 186.273C224.629 186.474 225.158 186.639 225.649 186.768L226.158 184.834C225.73 184.722 225.254 184.573 224.727 184.387L224.061 186.273ZM225.643 186.767L228.155 187.443L228.674 185.512L226.163 184.836L225.643 186.767ZM228.161 187.445C228.763 187.603 229.446 187.824 230.21 188.113L230.917 186.242C230.104 185.935 229.353 185.69 228.668 185.51L228.161 187.445ZM230.214 188.114C230.925 188.38 231.609 188.745 232.266 189.212L233.425 187.582C232.633 187.019 231.796 186.57 230.914 186.241L230.214 188.114ZM232.276 189.219C232.886 189.641 233.393 190.186 233.798 190.865L235.516 189.841C234.971 188.926 234.27 188.167 233.415 187.575L232.276 189.219ZM233.798 190.865C234.16 191.473 234.369 192.264 234.369 193.287H236.369C236.369 191.992 236.103 190.827 235.516 189.841L233.798 190.865ZM234.369 193.287C234.369 194.438 234.071 195.455 233.48 196.365L235.157 197.454C235.967 196.206 236.369 194.808 236.369 193.287H234.369ZM233.477 196.369C232.9 197.268 232.041 198.009 230.846 198.578L231.706 200.384C233.184 199.68 234.352 198.708 235.16 197.449L233.477 196.369ZM230.844 198.579C229.684 199.134 228.226 199.435 226.434 199.435V201.435C228.442 201.435 230.212 201.099 231.708 200.383L230.844 198.579ZM226.434 199.435C224.769 199.435 223.379 199.166 222.238 198.662L221.431 200.492C222.881 201.132 224.558 201.435 226.434 201.435V199.435ZM222.24 198.663C221.094 198.155 220.227 197.463 219.601 196.6L217.982 197.773C218.837 198.955 219.999 199.857 221.429 200.491L222.24 198.663ZM219.605 196.604C218.988 195.744 218.63 194.737 218.545 193.554L216.551 193.696C216.659 195.218 217.13 196.585 217.979 197.769L219.605 196.604ZM217.548 194.625H220.639V192.625H217.548V194.625ZM219.643 193.711C219.739 194.828 220.124 195.815 220.835 196.61L222.326 195.276C221.943 194.848 221.7 194.289 221.635 193.539L219.643 193.711ZM220.845 196.62C221.521 197.355 222.364 197.892 223.349 198.239L224.014 196.352C223.308 196.104 222.751 195.739 222.317 195.266L220.845 196.62ZM223.36 198.242C224.326 198.57 225.353 198.73 226.434 198.73V196.73C225.552 196.73 224.744 196.6 224.003 196.349L223.36 198.242ZM226.434 198.73C227.686 198.73 228.843 198.527 229.89 198.101L229.136 196.249C228.364 196.563 227.469 196.73 226.434 196.73V198.73ZM229.897 198.098C230.939 197.665 231.805 197.047 232.457 196.228L230.892 194.983C230.481 195.499 229.907 195.928 229.129 196.251L229.897 198.098ZM232.461 196.223C233.137 195.362 233.471 194.353 233.471 193.239H231.471C231.471 193.928 231.274 194.496 230.888 194.987L232.461 196.223ZM233.471 193.239C233.471 192.222 233.182 191.301 232.53 190.569L231.036 191.899C231.302 192.198 231.471 192.614 231.471 193.239H233.471ZM232.53 190.569C231.958 189.927 231.226 189.429 230.367 189.06L229.577 190.897C230.215 191.172 230.691 191.512 231.036 191.899L232.53 190.569ZM230.367 189.06C229.573 188.718 228.721 188.422 227.813 188.17L227.278 190.097C228.108 190.328 228.874 190.595 229.577 190.897L230.367 189.06ZM227.82 188.172L224.777 187.303L224.228 189.226L227.27 190.095L227.82 188.172ZM224.779 187.303C222.95 186.777 221.572 186.046 220.589 185.148L219.24 186.624C220.511 187.786 222.191 188.64 224.226 189.225L224.779 187.303ZM220.589 185.148C219.69 184.325 219.224 183.255 219.224 181.841H217.224C217.224 183.759 217.885 185.385 219.24 186.624L220.589 185.148ZM219.224 181.841C219.224 180.648 219.543 179.651 220.156 178.807L218.538 177.631C217.654 178.847 217.224 180.265 217.224 181.841H219.224ZM220.155 178.808C220.801 177.922 221.672 177.223 222.8 176.716L221.98 174.892C220.563 175.528 219.407 176.439 218.539 177.63L220.155 178.808ZM222.802 176.715C223.937 176.201 225.223 175.935 226.676 175.935V173.935C224.973 173.935 223.402 174.248 221.977 174.893L222.802 176.715ZM226.676 175.935C228.149 175.935 229.419 176.198 230.507 176.7L231.345 174.884C229.953 174.242 228.39 173.935 226.676 173.935V175.935ZM230.512 176.702C231.615 177.204 232.455 177.874 233.067 178.704L234.677 177.516C233.84 176.382 232.716 175.507 231.34 174.882L230.512 176.702ZM233.07 178.708C233.678 179.523 233.998 180.439 234.032 181.487L236.03 181.422C235.984 179.974 235.531 178.661 234.673 177.512L233.07 178.708ZM235.031 180.455H232.133V182.455H235.031V180.455ZM259.743 194.398L258.847 193.954L258.847 193.954L259.743 194.398ZM255.867 198.793L256.399 199.64L256.399 199.64L255.867 198.793ZM244.615 198.793L244.083 199.64L244.083 199.64L244.615 198.793ZM240.739 194.398L241.635 193.954L241.635 193.954L240.739 194.398ZM240.739 180.875L239.843 180.431L240.739 180.875ZM255.867 176.48L256.399 175.633L256.399 175.633L255.867 176.48ZM259.743 180.875L258.847 181.319L258.847 181.319L259.743 180.875ZM257.184 182.215L256.282 182.649L256.284 182.653L257.184 182.215ZM254.298 178.871L253.767 179.718L253.769 179.72L254.298 178.871ZM246.172 178.871L245.644 178.022L245.641 178.023L246.172 178.871ZM243.286 182.215L242.387 181.778L242.385 181.782L243.286 182.215ZM243.286 193.058L242.385 193.491L242.387 193.495L243.286 193.058ZM246.172 196.402L245.641 197.249L245.644 197.251L246.172 196.402ZM254.298 196.402L253.769 195.553L253.767 195.555L254.298 196.402ZM257.184 193.058L256.284 192.62L256.282 192.624L257.184 193.058ZM260.156 187.636C260.156 190.125 259.707 192.22 258.847 193.954L260.639 194.842C261.663 192.776 262.156 190.364 262.156 187.636H260.156ZM258.847 193.954C257.979 195.704 256.807 197.022 255.336 197.946L256.399 199.64C258.212 198.502 259.623 196.891 260.639 194.842L258.847 193.954ZM255.336 197.946C253.867 198.867 252.179 199.338 250.241 199.338V201.338C252.521 201.338 254.584 200.779 256.399 199.64L255.336 197.946ZM250.241 199.338C248.303 199.338 246.615 198.867 245.146 197.946L244.083 199.64C245.898 200.779 247.961 201.338 250.241 201.338V199.338ZM245.146 197.946C243.675 197.022 242.503 195.704 241.635 193.954L239.843 194.842C240.859 196.891 242.27 198.502 244.083 199.64L245.146 197.946ZM241.635 193.954C240.775 192.22 240.326 190.125 240.326 187.636H238.326C238.326 190.364 238.819 192.776 239.843 194.842L241.635 193.954ZM240.326 187.636C240.326 185.148 240.775 183.053 241.635 181.319L239.843 180.431C238.819 182.497 238.326 184.909 238.326 187.636H240.326ZM241.635 181.319C242.503 179.569 243.675 178.25 245.146 177.327L244.083 175.633C242.27 176.771 240.859 178.382 239.843 180.431L241.635 181.319ZM245.146 177.327C246.615 176.406 248.303 175.935 250.241 175.935V173.935C247.961 173.935 245.898 174.494 244.083 175.633L245.146 177.327ZM250.241 175.935C252.179 175.935 253.867 176.406 255.336 177.327L256.399 175.633C254.584 174.494 252.521 173.935 250.241 173.935V175.935ZM255.336 177.327C256.807 178.25 257.979 179.569 258.847 181.319L260.639 180.431C259.623 178.382 258.212 176.771 256.399 175.633L255.336 177.327ZM258.847 181.319C259.707 183.053 260.156 185.148 260.156 187.636H262.156C262.156 184.909 261.663 182.497 260.639 180.431L258.847 181.319ZM259.258 187.636C259.258 185.388 258.883 183.422 258.083 181.778L256.284 182.653C256.917 183.954 257.258 185.602 257.258 187.636H259.258ZM258.085 181.782C257.306 180.163 256.225 178.892 254.826 178.022L253.769 179.72C254.802 180.362 255.644 181.322 256.282 182.649L258.085 181.782ZM254.829 178.023C253.454 177.162 251.916 176.736 250.241 176.736V178.736C251.56 178.736 252.727 179.066 253.767 179.718L254.829 178.023ZM250.241 176.736C248.566 176.736 247.025 177.162 245.644 178.022L246.701 179.72C247.75 179.066 248.922 178.736 250.241 178.736V176.736ZM245.641 178.023C244.252 178.894 243.173 180.162 242.387 181.778L244.186 182.653C244.833 181.322 245.677 180.361 246.703 179.718L245.641 178.023ZM242.385 181.782C241.595 183.425 241.224 185.39 241.224 187.636H243.224C243.224 185.601 243.561 183.951 244.188 182.649L242.385 181.782ZM241.224 187.636C241.224 189.883 241.595 191.848 242.385 193.491L244.188 192.624C243.561 191.322 243.224 189.672 243.224 187.636H241.224ZM242.387 193.495C243.173 195.111 244.252 196.379 245.641 197.249L246.703 195.555C245.677 194.912 244.833 193.95 244.186 192.62L242.387 193.495ZM245.644 197.251C247.025 198.111 248.566 198.537 250.241 198.537V196.537C248.922 196.537 247.75 196.206 246.701 195.553L245.644 197.251ZM250.241 198.537C251.916 198.537 253.454 198.111 254.829 197.249L253.767 195.555C252.727 196.206 251.56 196.537 250.241 196.537V198.537ZM254.826 197.251C256.225 196.38 257.306 195.11 258.085 193.491L256.282 192.624C255.644 193.951 254.802 194.91 253.769 195.553L254.826 197.251ZM258.083 193.495C258.883 191.85 259.258 189.884 259.258 187.636H257.258C257.258 189.671 256.917 191.319 256.284 192.62L258.083 193.495ZM285.642 194.398L284.746 193.954L284.746 193.954L285.642 194.398ZM281.766 198.793L282.297 199.64L282.297 199.64L281.766 198.793ZM270.513 198.793L269.982 199.64L269.982 199.64L270.513 198.793ZM266.637 194.398L267.533 193.954L267.533 193.954L266.637 194.398ZM266.637 180.875L265.741 180.431L266.637 180.875ZM281.766 176.48L282.297 175.633L282.297 175.633L281.766 176.48ZM285.642 180.875L284.746 181.319L284.746 181.319L285.642 180.875ZM283.082 182.215L282.181 182.649L282.183 182.653L283.082 182.215ZM280.196 178.871L279.665 179.718L279.668 179.72L280.196 178.871ZM272.071 178.871L271.542 178.022L271.54 178.023L272.071 178.871ZM269.185 182.215L268.286 181.778L268.284 181.782L269.185 182.215ZM269.185 193.058L268.284 193.491L268.286 193.495L269.185 193.058ZM272.071 196.402L271.54 197.249L271.542 197.251L272.071 196.402ZM280.196 196.402L279.668 195.553L279.665 195.555L280.196 196.402ZM283.082 193.058L282.183 192.62L282.181 192.624L283.082 193.058ZM286.054 187.636C286.054 190.125 285.605 192.22 284.746 193.954L286.538 194.842C287.562 192.776 288.054 190.364 288.054 187.636H286.054ZM284.746 193.954C283.878 195.704 282.706 197.022 281.234 197.946L282.297 199.64C284.11 198.502 285.522 196.891 286.538 194.842L284.746 193.954ZM281.234 197.946C279.766 198.867 278.078 199.338 276.139 199.338V201.338C278.419 201.338 280.482 200.779 282.297 199.64L281.234 197.946ZM276.139 199.338C274.201 199.338 272.513 198.867 271.045 197.946L269.982 199.64C271.797 200.779 273.86 201.338 276.139 201.338V199.338ZM271.045 197.946C269.573 197.022 268.401 195.704 267.533 193.954L265.741 194.842C266.757 196.891 268.169 198.502 269.982 199.64L271.045 197.946ZM267.533 193.954C266.674 192.22 266.225 190.125 266.225 187.636H264.225C264.225 190.364 264.717 192.776 265.741 194.842L267.533 193.954ZM266.225 187.636C266.225 185.148 266.674 183.053 267.533 181.319L265.741 180.431C264.717 182.497 264.225 184.909 264.225 187.636H266.225ZM267.533 181.319C268.401 179.569 269.573 178.25 271.045 177.327L269.982 175.633C268.169 176.771 266.757 178.382 265.741 180.431L267.533 181.319ZM271.045 177.327C272.513 176.406 274.201 175.935 276.139 175.935V173.935C273.86 173.935 271.797 174.494 269.982 175.633L271.045 177.327ZM276.139 175.935C278.078 175.935 279.766 176.406 281.234 177.327L282.297 175.633C280.482 174.494 278.419 173.935 276.139 173.935V175.935ZM281.234 177.327C282.706 178.25 283.878 179.569 284.746 181.319L286.538 180.431C285.522 178.382 284.11 176.771 282.297 175.633L281.234 177.327ZM284.746 181.319C285.605 183.053 286.054 185.148 286.054 187.636H288.054C288.054 184.909 287.562 182.497 286.538 180.431L284.746 181.319ZM285.157 187.636C285.157 185.388 284.781 183.422 283.981 181.778L282.183 182.653C282.816 183.954 283.157 185.602 283.157 187.636H285.157ZM283.983 181.782C283.204 180.163 282.123 178.892 280.725 178.022L279.668 179.72C280.7 180.362 281.543 181.322 282.181 182.649L283.983 181.782ZM280.727 178.023C279.353 177.162 277.814 176.736 276.139 176.736V178.736C277.459 178.736 278.625 179.066 279.665 179.718L280.727 178.023ZM276.139 176.736C274.464 176.736 272.924 177.162 271.542 178.022L272.599 179.72C273.648 179.066 274.82 178.736 276.139 178.736V176.736ZM271.54 178.023C270.151 178.894 269.071 180.162 268.286 181.778L270.084 182.653C270.731 181.322 271.576 180.361 272.602 179.718L271.54 178.023ZM268.284 181.782C267.493 183.425 267.122 185.39 267.122 187.636H269.122C269.122 185.601 269.46 183.951 270.086 182.649L268.284 181.782ZM267.122 187.636C267.122 189.883 267.493 191.848 268.284 193.491L270.086 192.624C269.46 191.322 269.122 189.672 269.122 187.636H267.122ZM268.286 193.495C269.071 195.111 270.151 196.379 271.54 197.249L272.602 195.555C271.576 194.912 270.731 193.95 270.084 192.62L268.286 193.495ZM271.542 197.251C272.924 198.111 274.464 198.537 276.139 198.537V196.537C274.82 196.537 273.648 196.206 272.599 195.553L271.542 197.251ZM276.139 198.537C277.814 198.537 279.353 198.111 280.727 197.249L279.665 195.555C278.625 196.206 277.459 196.537 276.139 196.537V198.537ZM280.725 197.251C282.123 196.38 283.204 195.11 283.983 193.491L282.181 192.624C281.543 193.951 280.7 194.91 279.668 195.553L280.725 197.251ZM283.981 193.495C284.781 191.85 285.157 189.884 285.157 187.636H283.157C283.157 189.671 282.816 191.319 282.183 192.62L283.981 193.495ZM311.697 175.273H312.697V174.273H311.697V175.273ZM311.697 200V201H312.697V200H311.697ZM308.799 200L307.978 200.57L308.276 201H308.799V200ZM295.325 180.585L296.146 180.015L295.848 179.585H295.325V180.585ZM295.083 180.585V179.585H294.083V180.585H295.083ZM295.083 200V201H296.083V200H295.083ZM292.089 200H291.089V201H292.089V200ZM292.089 175.273V174.273H291.089V175.273H292.089ZM294.987 175.273L295.808 174.702L295.51 174.273H294.987V175.273ZM308.51 194.736L307.688 195.306L307.987 195.736H308.51V194.736ZM308.751 194.736V195.736H309.751V194.736H308.751ZM308.751 175.273V174.273H307.751V175.273H308.751ZM310.697 175.273V200H312.697V175.273H310.697ZM311.697 199H308.799V201H311.697V199ZM309.621 199.43L296.146 180.015L294.503 181.155L307.978 200.57L309.621 199.43ZM295.325 179.585H295.083V181.585H295.325V179.585ZM294.083 180.585V200H296.083V180.585H294.083ZM295.083 199H292.089V201H295.083V199ZM293.089 200V175.273H291.089V200H293.089ZM292.089 176.273H294.987V174.273H292.089V176.273ZM294.166 175.843L307.688 195.306L309.331 194.165L295.808 174.702L294.166 175.843ZM308.51 195.736H308.751V193.736H308.51V195.736ZM309.751 194.736V175.273H307.751V194.736H309.751ZM308.751 176.273H311.697V174.273H308.751V176.273Z" fill="black" mask="url(#path-2-outside-1_525_2701)"/>
</g>
<defs>
<filter id="filter0_d_525_2701" x="63.334" y="174.935" width="252.363" height="33.5" filterUnits="userSpaceOnUse" color-interpolation-filters="sRGB">
<feFlood flood-opacity="0" result="BackgroundImageFix"/>
<feColorMatrix in="SourceAlpha" type="matrix" values="0 0 0 0 0 0 0 0 0 0 0 0 0 0 0 0 0 0 127 0" result="hardAlpha"/>
<feOffset dy="4"/>
<feGaussianBlur stdDeviation="2"/>
<feComposite in2="hardAlpha" operator="out"/>
<feColorMatrix type="matrix" values="0 0 0 0 0 0 0 0 0 0 0 0 0 0 0 0 0 0 0.25 0"/>
<feBlend mode="normal" in2="BackgroundImageFix" result="effect1_dropShadow_525_2701"/>
<feBlend mode="normal" in="SourceGraphic" in2="effect1_dropShadow_525_2701" result="shape"/>
</filter>
</defs>
</svg>
